HIERARCHY
ROOT Pelvis
{
	OFFSET 0.000000 0.000000 0.000000
	CHANNELS 6 Xposition Yposition Zposition Zrotation Yrotation Xrotation 
	JOINT Left_hip
	{
		OFFSET 0.067986 -0.089946 -0.007639
		CHANNELS 3 Zrotation Yrotation Xrotation
		JOINT Left_knee
		{
			OFFSET 0.036308 -0.388288 -0.004016
			CHANNELS 3 Zrotation Yrotation Xrotation
			JOINT Left_ankle
			{
				OFFSET -0.012264 -0.413250 -0.042878
				CHANNELS 3 Zrotation Yrotation Xrotation
				JOINT Left_foot
				{
					OFFSET 0.024043 -0.058563 0.118570
					CHANNELS 3 Zrotation Yrotation Xrotation
					End Site
					{
						OFFSET 0.000000 0.000000 0.000000
					}
				}
			}
		}
	}
	JOINT Right_hip
	{
		OFFSET -0.065648 -0.089374 -0.003858
		CHANNELS 3 Zrotation Yrotation Xrotation
		JOINT Right_knee
		{
			OFFSET -0.042132 -0.395021 -0.006361
			CHANNELS 3 Zrotation Yrotation Xrotation
			JOINT Right_ankle
			{
				OFFSET 0.014805 -0.413264 -0.041054
				CHANNELS 3 Zrotation Yrotation Xrotation
				JOINT Right_foot
				{
					OFFSET -0.021758 -0.049013 0.121832
					CHANNELS 3 Zrotation Yrotation Xrotation
					End Site
					{
						OFFSET 0.000000 0.000000 0.000000
					}
				}
			}
		}
	}
	JOINT Spine1
	{
		OFFSET -0.002755 0.104406 -0.022277
		CHANNELS 3 Zrotation Yrotation Xrotation
		JOINT Spine2
		{
			OFFSET 0.004136 0.129393 -0.002186
			CHANNELS 3 Zrotation Yrotation Xrotation
			JOINT Spine3
			{
				OFFSET 0.001906 0.049304 0.025578
				CHANNELS 3 Zrotation Yrotation Xrotation
				JOINT Neck
				{
					OFFSET -0.004620 0.210958 -0.044063
					CHANNELS 3 Zrotation Yrotation Xrotation
					JOINT Head
					{
						OFFSET 0.003833 0.067393 0.052435
						CHANNELS 3 Zrotation Yrotation Xrotation
						End Site
						{
							OFFSET 0.000000 0.000000 0.000000
						}
					}
				}
				JOINT Left_collar
				{
					OFFSET 0.070771 0.116689 -0.037192
					CHANNELS 3 Zrotation Yrotation Xrotation
					JOINT Left_shoulder
					{
						OFFSET 0.080652 0.031596 -0.005617
						CHANNELS 3 Zrotation Yrotation Xrotation
						JOINT Left_elbow
						{
							OFFSET 0.262654 -0.015020 -0.027939
							CHANNELS 3 Zrotation Yrotation Xrotation
							JOINT Left_wrist
							{
								OFFSET 0.250438 0.010062 -0.000990
								CHANNELS 3 Zrotation Yrotation Xrotation
								JOINT Left_palm
								{
									OFFSET 0.081198 -0.010037 -0.013706
									CHANNELS 3 Zrotation Yrotation Xrotation
									End Site
									{
										OFFSET 0.000000 0.000000 0.000000
									}
								}
							}
						}
					}
				}
				JOINT Right_collar
				{
					OFFSET -0.072972 0.115556 -0.040762
					CHANNELS 3 Zrotation Yrotation Xrotation
					JOINT Right_shoulder
					{
						OFFSET -0.082917 0.031841 -0.006673
						CHANNELS 3 Zrotation Yrotation Xrotation
						JOINT Right_elbow
						{
							OFFSET -0.252882 -0.013790 -0.020410
							CHANNELS 3 Zrotation Yrotation Xrotation
							JOINT Right_wrist
							{
								OFFSET -0.255570 0.009163 -0.005138
								CHANNELS 3 Zrotation Yrotation Xrotation
								JOINT Right_palm
								{
									OFFSET -0.080804 -0.007282 -0.010415
									CHANNELS 3 Zrotation Yrotation Xrotation
									End Site
									{
										OFFSET 0.000000 0.000000 0.000000
									}
								}
							}
						}
					}
				}
			}
		}
	}
}
MOTION
Frames: 12
Frame Time: 0.100000
0.284504 0.248379 -1.106027 -155.400506 -72.109288 -31.113320 5.083461 -1.662364 -15.562456 -7.289064 7.453731 6.354674 -6.830659 11.161777 -2.779184 15.675601 2.590796 -1.641652 -4.595037 -8.177460 19.852255 6.781136 1.461992 12.913650 2.195838 -6.183699 -20.808476 1.814046 2.532602 6.167149 1.651154 9.214113 7.464453 5.549582 0.287810 8.883412 2.945250 4.558910 1.165001 -2.329578 21.584297 -1.955400 -12.416059 6.947699 11.225079 -20.218071 0.129809 0.793738 -34.432060 1.706629 24.684023 -101.990804 -73.882352 120.490942 -7.908941 -15.584015 -23.517980 -10.537809 -1.706194 -8.202650 29.593675 12.209914 4.977713 25.668213 25.139847 8.681426 -13.321367 49.193945 -14.179247 5.957242 6.742279 -6.634115 9.778940 4.669930 -8.159484 
0.356422 0.238530 -1.053861 -159.147905 -67.710003 -29.262829 1.609811 -3.868620 -13.179223 -8.630081 4.202932 15.177971 -1.812148 10.908166 -4.477649 11.835243 3.786515 -4.191190 -8.236916 -7.956213 14.835506 6.941364 1.236694 33.982323 9.305966 -6.918021 -8.155128 -5.685240 7.393614 -2.902175 0.573151 8.000522 7.743493 6.074771 0.658268 8.955446 2.466940 3.627443 2.071603 -3.003884 21.006966 -2.976321 -12.000080 9.078176 12.032915 -19.817214 1.141438 1.590707 -35.589294 -0.261272 23.520346 -101.082761 -73.253794 119.067891 -7.030198 -14.133604 -24.200291 -11.736574 -3.098254 -7.025313 31.445141 9.467499 5.242373 28.630845 19.815398 11.145223 -7.877416 41.303938 -11.275228 7.351225 4.394647 -0.924795 10.962712 5.807064 -8.759635 
0.414860 0.227630 -1.007977 -161.309866 -63.657838 -29.502553 -2.260468 -3.398304 -4.293184 -9.778497 -0.607680 14.066500 4.245189 11.313325 -7.988129 6.482766 4.560464 -4.110116 -9.784918 -5.992525 3.840101 6.020933 2.620222 56.106101 16.744172 -12.971757 13.076757 -13.935512 11.847881 -13.295930 -0.496985 4.945245 9.088189 6.603999 2.139864 9.664034 2.068455 2.519317 2.734509 -3.743911 19.772555 -3.573744 -12.258013 12.189010 12.434011 -19.670131 2.116374 2.776437 -34.902451 -2.602614 21.545463 -101.815893 -72.632294 119.983430 -7.318419 -12.728763 -22.483674 -12.837911 -5.330857 -8.004792 32.868952 7.521380 5.395229 28.984728 15.403648 12.331377 -3.622537 29.953623 -11.907900 9.560779 1.162564 5.570026 12.733480 7.053177 -10.223710 
0.468505 0.213124 -0.968790 -168.394010 -57.011792 -24.629944 -3.082221 -2.325341 4.709476 -9.166092 -8.560704 10.442872 3.109099 10.839618 -9.474374 5.617646 3.310716 -5.015881 -7.972409 -4.628735 -3.359476 4.317376 -0.593807 59.779634 13.429281 -15.639421 4.283178 -12.230313 12.305961 -10.214533 -0.140169 1.289099 9.900627 7.069399 1.430825 9.799389 2.457298 0.612942 3.211405 -3.594672 20.130136 -2.018310 -12.475662 12.167033 11.596366 -19.181154 2.436042 3.887002 -35.298517 -3.701801 21.369194 -99.489782 -72.553515 119.118332 -7.286804 -12.647224 -23.999139 -9.415939 -4.087825 -5.965979 32.882377 4.741372 5.225036 29.954124 9.577890 12.148491 -2.452844 22.572638 -10.612001 10.201580 -0.192490 5.712488 9.436402 5.823570 -8.135699 
0.516419 0.205010 -0.934199 -172.027545 -51.220608 -21.197208 -2.578966 -1.608773 10.283998 -8.349326 -14.403394 8.020841 1.432395 9.657137 -10.997180 4.098830 2.020375 -4.893279 -5.660984 -2.430373 -9.614228 3.060485 -1.705485 47.049877 11.344073 -15.626791 -5.305266 -10.516531 11.423996 -4.358811 0.108822 -0.933776 10.607769 6.570375 1.401862 8.810198 2.716444 -0.449505 3.402318 -3.793924 20.303365 -1.385513 -11.500643 11.236785 9.834230 -18.746016 3.981222 3.992906 -34.750462 -4.174763 21.259682 -99.928648 -72.885933 120.629892 -7.845315 -14.131336 -24.176592 -6.356123 -2.697307 -2.954357 32.196983 1.040112 5.144954 30.961921 3.217586 13.055335 -0.603353 21.570565 -5.667840 11.932113 0.484161 3.876716 6.708181 4.917203 -5.670369 
0.562376 0.203671 -0.899127 -173.487516 -46.804813 -18.965437 -1.923012 -1.627045 14.358670 -7.923702 -18.615762 6.570907 0.938691 8.735293 -13.096462 1.739294 0.149691 -3.161867 -3.934446 -1.004448 -13.883136 3.917261 -0.787745 26.858343 12.554244 -11.622937 -6.268011 -11.303987 10.678075 0.176999 0.120814 -1.874723 10.624004 5.734527 1.458969 8.438254 2.910832 -0.668026 3.486143 -4.899357 20.494924 -0.994306 -9.913979 10.810349 7.474116 -17.960732 4.810924 3.976204 -35.008887 -3.681684 21.999659 -98.785366 -72.917926 119.395878 -6.572947 -15.465885 -24.579458 -6.113997 -2.543444 -0.891627 31.091476 -1.214694 6.042020 31.812601 -0.984305 14.124533 3.191650 20.668088 1.457309 12.283013 1.375847 3.704942 7.412513 5.429099 -5.310336 
0.610838 0.204380 -0.859501 -174.045134 -42.314955 -17.453487 -0.664871 -1.698888 17.226696 -8.704696 -21.977921 7.444599 0.339844 6.871525 -14.636869 -0.517392 -1.084616 -1.700295 -2.972878 -0.767567 -14.657835 6.137195 -0.157155 5.110808 13.734568 -7.005695 -5.749270 -11.182185 9.263608 4.992292 0.239821 -2.005172 10.436517 4.848534 1.314616 8.230427 3.056760 -0.640137 3.176189 -5.784935 20.299726 -0.407062 -8.452194 10.407085 5.150064 -17.692630 5.301446 3.867131 -35.496753 -3.280225 22.628150 -97.243870 -73.433285 117.945564 -5.226025 -16.448932 -24.855445 -7.048446 -2.607580 0.057790 30.214554 -2.823355 6.858066 32.488516 -4.069639 13.982042 5.319911 20.419770 4.711571 11.389059 2.527452 1.596247 9.548728 6.247344 -5.585160 
0.669304 0.205564 -0.809915 -174.644441 -36.195374 -17.192033 0.414851 -2.611160 19.785119 -10.607175 -26.050263 12.931803 -0.210441 5.768338 -15.146769 -1.226043 -1.847637 -2.371203 -2.748653 0.925189 -15.310695 6.760975 3.427141 3.623870 14.140430 -4.381368 -4.466628 -10.959702 8.767113 5.499843 0.070679 -2.695183 9.273017 5.015080 1.168673 8.867764 2.880157 -0.955386 3.085146 -5.739745 19.341300 -0.003544 -8.103352 9.493085 4.745694 -17.966563 5.783297 3.862898 -35.044444 -3.488315 22.865729 -97.444325 -73.964402 117.998818 -5.230433 -16.626829 -25.353167 -7.677105 -2.500040 0.822725 30.575992 -3.681591 6.745455 31.649867 -5.589823 14.310705 6.250707 19.179635 6.522171 12.597056 2.147163 1.555244 10.120343 6.364951 -5.264411 
0.735502 0.198335 -0.752783 -175.920165 -30.885859 -18.604594 2.263086 -3.760615 18.400242 -16.616186 -26.272180 29.148253 -3.880715 3.405651 -7.463653 1.386035 -1.233668 -9.204030 -2.230998 1.801379 -16.128894 7.859086 2.706386 19.728264 11.308327 -8.082469 -3.833847 -11.257678 9.559972 1.953435 0.760595 -3.323763 8.953987 5.816726 1.542789 9.722435 2.675574 -1.199812 2.910937 -5.391387 17.538589 -0.429764 -8.756490 9.063383 6.847167 -18.863607 6.012365 4.377984 -35.609067 -3.401125 22.509568 -95.690174 -74.249296 117.156505 -5.613887 -15.097284 -25.150771 -7.747683 -2.674441 -0.206562 31.532695 -2.320992 6.360848 30.682347 -4.451399 13.667348 4.298402 17.276401 3.840339 11.715426 0.491208 3.143013 9.412157 5.627012 -4.491200 
0.792551 0.188085 -0.701178 -178.026240 -26.567519 -19.641753 6.382186 -3.861217 4.693260 -20.557289 -14.121156 55.344480 -14.677150 2.155555 11.522985 5.735675 -0.591766 -19.501319 0.132494 -0.607808 -8.778311 8.730661 1.446580 21.706583 2.484670 -7.900751 -10.201377 -5.949921 7.024942 3.306183 2.632002 -1.515605 10.181137 6.194412 0.527517 9.475489 2.734031 -0.539089 2.307251 -6.001234 15.734856 -1.603692 -8.029047 7.801714 9.054873 -19.442829 4.997796 3.988112 -35.760447 -3.239823 22.796280 -98.036125 -74.720493 120.266601 -6.513579 -15.127877 -26.373289 -7.436597 -1.556042 0.657469 32.502742 0.880964 6.167354 30.344730 0.172260 11.786624 2.063588 18.921196 1.036687 10.650681 0.201657 0.141951 7.688468 4.249338 -1.948856 
0.834097 0.170914 -0.657260 -177.714160 -25.533645 -20.560279 7.635066 -3.621747 -7.192081 -12.556544 -1.126751 65.399369 -9.091692 8.957650 6.124496 6.259971 0.548276 -16.250600 0.532638 -2.781624 -0.789172 8.752649 3.099851 17.546051 0.471124 -6.721925 -12.446102 -3.480406 4.756062 4.280473 2.532009 2.412918 11.059821 6.629090 0.772447 9.081568 3.155465 1.324891 2.388395 -5.504081 13.672669 -2.678826 -8.487780 5.676767 10.684988 -20.102607 3.058674 3.427160 -35.842488 -1.966772 23.179006 -99.936882 -74.678689 120.944650 -6.355747 -13.462530 -27.176572 -9.294478 -1.968416 -0.544612 33.525396 6.236157 7.010835 27.791239 8.570531 9.889512 0.401874 21.063697 -3.266003 6.996285 0.007329 -0.212998 9.921177 4.972453 -5.065324 
0.864012 0.157632 -0.613166 -176.089717 -24.475757 -20.915075 7.835356 -3.621869 -15.388939 -12.492179 2.231951 57.037076 -7.505450 6.674082 -0.376015 7.567219 2.086165 -11.524665 -1.881465 -5.349028 6.804698 8.784284 4.111502 10.875899 1.847255 -4.720061 -13.844586 -3.392100 4.195347 5.113901 2.762746 5.647729 11.365546 5.847254 0.736570 8.663325 2.738042 3.016780 2.079547 -4.883070 13.348589 -2.866795 -9.588568 3.138725 11.488117 -19.664018 1.605556 2.546086 -36.239241 -0.497015 23.715621 -102.593599 -74.626320 123.809633 -5.785865 -13.672919 -27.004937 -10.464576 -1.936476 -2.283894 31.968144 10.621949 6.639604 26.661815 16.633576 7.813160 -2.164798 27.830108 -6.060713 4.675540 1.481352 -1.324051 11.237549 5.586880 -6.401567 
